<svg width="706pt" height="470pt" viewBox="0 0 706.43 470.01" xmlns="http://www.w3.org/2000/svg"><g class="graph" transform="translate(4 466.01)"><path fill="#fff" stroke="transparent" d="M-4 4v-470.01h706.43V4H-4z"/><g class="node"><circle stroke="#000" cx="7.2" cy="-203.51" r="7.2"/></g><g class="node"><circle fill="none" stroke="#000" cx="86.4" cy="-203.51" r="39.5"/><text text-anchor="middle" x="86.4" y="-200.41" font-family="monospace" font-size="12">OFF</text></g><g class="edge"><path fill="none" stroke="#000" d="M14.51-203.51h22.11"/><path stroke="#000" d="m36.63-207.01 10 3.5-10 3.5v-7z"/></g><g class="node"><circle fill="none" stroke="#000" cx="149.74" cy="-335.03" r="39.5"/><text text-anchor="middle" x="149.74" y="-331.93" font-family="monospace" font-size="12">INIT</text></g><g class="edge"><path fill="none" stroke="#00f" d="M97.92-241.38c6.96-16.26 16-35.31 24.61-51.96"/><path fill="#00f" stroke="#00f" d="m119.5-295.1 7.76-7.22-1.57 10.48-6.19-3.26z"/></g><g class="node"><circle fill="none" stroke="#000" cx="292.06" cy="-39.5" r="39.5"/><text text-anchor="middle" x="292.06" y="-36.4" font-family="monospace" font-size="12">GO</text></g><g class="edge"><path fill="none" stroke="#00f" d="M260.83-64.41c-36.2-28.86-95.88-76.46-135.18-107.8"/><path fill="#00f" stroke="#00f" d="m123.23-169.66-5.64-8.97 10 3.49-4.36 5.48z"/></g><g class="node"><circle fill="none" stroke="#000" cx="149.74" cy="-71.98" r="39.5"/><text text-anchor="middle" x="149.74" y="-68.88" font-family="monospace" font-size="12">GO_END</text></g><g class="edge"><path fill="none" stroke="red" d="M252.57-42.3c-17.4-3.17-37.97-7.74-56.13-12.43"/><path fill="red" stroke="red" d="m195.4-51.39-8.76-5.95 10.56-.81-1.8 6.76z"/></g><g class="edge"><path fill="none" stroke="orange" d="M255.27-54.11c-17.06-4.69-37.58-9.5-55.97-13.15"/><path fill="orange" stroke="orange" d="m198.5-63.85-9.17-5.32 10.48-1.56-1.31 6.88z"/><text text-anchor="middle" x="227.28" y="-52.69" font-family="monospace" font-size="10" fill="#ff8c00">20000 ms</text></g><g class="node"><circle fill="none" stroke="#000" cx="406.19" cy="-276.5" r="39.5"/><text text-anchor="middle" x="406.19" y="-273.4" font-family="monospace" font-size="12">SLEEP</text></g><g class="edge"><path fill="none" stroke="gray" d="m309.27-75.24 75.42-156.6"/><path fill="gray" stroke="gray" d="m381.54-233.37 7.49-7.49-1.19 10.53-6.3-3.04z"/></g><g class="edge"><path fill="none" stroke="#00f" d="M132.6-107.58c-7.61-15.79-16.64-34.54-24.69-51.26"/><path fill="#00f" stroke="#00f" d="m104.74-157.36-1.19-10.53 7.5 7.49-6.31 3.04z"/></g><g class="node"><circle fill="none" stroke="#000" cx="292.06" cy="-367.52" r="39.5"/><text text-anchor="middle" x="292.06" y="-364.42" font-family="monospace" font-size="12">STOP</text></g><g class="edge"><path fill="none" stroke="red" d="M162.65-109.32c23.5-55.15 72.88-158.03 103.5-215.9"/><path fill="red" stroke="red" d="m263.1-326.93 7.8-7.18-1.63 10.47-6.17-3.29z"/></g><g class="edge"><path fill="none" stroke="orange" d="M170.88-105.36c28.47-52.75 78.11-155.51 104.27-215.53"/><path fill="orange" stroke="orange" d="m271.96-322.34 7.17-7.8-.74 10.57-6.43-2.77z"/><text text-anchor="middle" x="201.51" y="-216.12" font-family="monospace" font-size="10" fill="#ff8c00">3000 ms</text></g><g class="edge"><path fill="none" stroke="gray" d="M180.67-96.65c46.79-37.32 135.51-108.06 186.61-148.82"/><path fill="gray" stroke="gray" d="m365.15-248.24 10-3.5-5.64 8.97-4.36-5.47z"/></g><g class="edge"><path fill="none" stroke="#00f" d="M260.83-342.61c-36.2 28.86-95.88 76.46-135.18 107.8"/><path fill="#00f" stroke="#00f" d="m127.59-231.88-10 3.5 5.64-8.97 4.36 5.47z"/></g><g class="node"><circle fill="none" stroke="#000" cx="406.19" cy="-130.52" r="39.5"/><text text-anchor="middle" x="406.19" y="-127.42" font-family="monospace" font-size="12">STOP_END</text></g><g class="edge"><path fill="none" stroke="red" d="M313.64-334.2c22.17 40.96 55.9 110.68 76.06 156.97"/><path fill="red" stroke="red" d="m392.92-178.58.74 10.57-7.17-7.81 6.43-2.76z"/></g><g class="edge"><path fill="none" stroke="orange" d="M304.66-329.87c18.2 42.87 51.67 112.71 75.3 157.33"/><path fill="orange" stroke="orange" d="m383.06-174.16 1.63 10.46-7.8-7.16 6.17-3.3z"/><text text-anchor="middle" x="317.81" y="-254.21" font-family="monospace" font-size="10" fill="#ff8c00">20000 ms</text></g><g class="edge"><path fill="none" stroke="gray" d="M326.42-347.86c14.3 10.41 30.86 23.45 45.18 35.56"/><path fill="gray" stroke="gray" d="m373.99-314.87 5.31 9.17-9.87-3.85 4.56-5.32z"/></g><g class="edge"><path fill="none" stroke="#00f" d="M367.62-139.32c-58.35-13.32-168.97-38.57-232.7-53.11"/><path fill="#00f" stroke="#00f" d="m134.08-189.04-8.97-5.63 10.53-1.19-1.56 6.82z"/></g><g class="edge"><path fill="none" stroke="red" d="M379.39-101.39c-13.34 11.63-29.74 24.86-44.73 36.13"/><path fill="red" stroke="red" d="m336.63-62.36-10.12 3.14 5.95-8.76 4.17 5.62z"/></g><g class="edge"><path fill="none" stroke="orange" d="M371.83-110.86c-14.3 10.41-30.85 23.45-45.18 35.56"/><path fill="orange" stroke="orange" d="m328.82-72.55-9.87 3.85 5.31-9.17 4.56 5.32z"/><text text-anchor="middle" x="327.74" y="-96.08" font-family="monospace" font-size="10" fill="#ff8c00">1000 ms</text></g><g class="edge"><path fill="none" stroke="gray" d="M406.19-170.02v-56.9"/><path fill="gray" stroke="gray" d="m402.69-226.96 3.5-10 3.5 10h-7z"/></g><g class="edge"><path fill="none" stroke="#00f" d="M138.22-297.16c-6.96 16.26-16 35.3-24.61 51.96"/><path fill="#00f" stroke="#00f" d="m116.64-243.44-7.76 7.22 1.56-10.48 6.2 3.26z"/></g><g class="edge"><path fill="none" stroke="orange" d="M188.25-343.82c17.09-3.9 37.38-8.54 55.48-12.67"/><path fill="orange" stroke="orange" d="m242.99-359.91 10.53 1.19-8.97 5.64-1.56-6.83z"/><text text-anchor="middle" x="234.49" y="-353.16" font-family="monospace" font-size="10" fill="#ff8c00">900 ms</text></g><g class="edge"><path fill="none" stroke="red" d="M371.83-296.16c-14.3-10.41-30.85-23.45-45.18-35.55"/><path fill="red" stroke="red" d="m324.26-329.15-5.31-9.17 9.87 3.85-4.56 5.32z"/></g><g class="node"><text x="417.93" y="-446.91" font-family="monospace" font-weight="bold" font-size="12">Action</text><text x="417.93" y="-428.91" font-family="monospace" font-size="12">ON/OFF switch</text><text x="417.93" y="-411.91" font-family="monospace" font-size="12">State time-out</text><text x="417.93" y="-394.91" font-family="monospace" font-size="12">Global time-out</text><text x="417.93" y="-377.91" font-family="monospace" font-size="12">Button click</text></g><g class="node"><text x="654.93" y="-445.91" font-family="monospace" font-size="12"> </text><text x="654.93" y="-428.91" font-family="monospace" font-size="12"> </text><text x="654.93" y="-411.91" font-family="monospace" font-size="12"> </text><text x="654.93" y="-394.91" font-family="monospace" font-size="12"> </text><text x="654.93" y="-377.91" font-family="monospace" font-size="12"> </text></g><g class="edge"><path fill="none" stroke="#00f" d="M532.93-432.51H642.7"/><path fill="#00f" stroke="#00f" d="m642.93-436.01 10 3.5-10 3.5v-7z"/></g><g class="edge"><path fill="none" stroke="orange" d="M532.93-414.51H642.7"/><path fill="orange" stroke="orange" d="m642.93-418.01 10 3.5-10 3.5v-7z"/></g><g class="edge"><path fill="none" stroke="gray" d="M532.93-397.51H642.7"/><path fill="gray" stroke="gray" d="m642.93-401.01 10 3.5-10 3.5v-7z"/></g><g class="edge"><path fill="none" stroke="red" d="M532.93-380.51H642.7"/><path fill="red" stroke="red" d="m642.93-384.01 10 3.5-10 3.5v-7z"/></g></g></svg>